<?xml version="1.0" standalone="no"?>
<!DOCTYPE svg PUBLIC "-//W3C//DTD SVG 20010904//EN"
 "http://www.w3.org/TR/2001/REC-SVG-20010904/DTD/svg10.dtd">
<svg version="1.0" xmlns="http://www.w3.org/2000/svg"
 width="188.000000pt" height="188.000000pt" viewBox="0 0 188.000000 188.000000"
 preserveAspectRatio="xMidYMid meet">
<metadata>
Created by potrace 1.11, written by Peter Selinger 2001-2013
</metadata>
<g transform="translate(0.000000,188.000000) scale(0.100000,-0.100000)"
fill="#000000" stroke="none">
<path d="M842 1521 c-61 -24 -107 -63 -139 -119 -25 -41 -28 -57 -28 -132 0
-64 5 -95 19 -124 35 -70 7 -49 776 -571 138 -93 250 -172 250 -175 0 -3 -351
-5 -780 -5 -429 0 -780 2 -780 5 1 3 111 79 247 170 402 270 438 296 438 315
0 10 -8 23 -17 28 -14 9 -51 -12 -200 -112 -101 -68 -273 -185 -383 -259 -219
-147 -253 -176 -234 -198 17 -21 1841 -21 1858 0 25 29 75 -8 -634 472 -231
156 -434 300 -452 320 -68 77 -62 202 13 277 49 49 93 63 185 58 37 -2 114
-56 140 -99 27 -46 35 -142 13 -183 -16 -32 -10 -55 16 -62 62 -16 86 162 36
261 -26 52 -75 101 -129 128 -46 24 -161 27 -215 5z"/>
</g>
</svg>
